<svg width="512" height="512" viewBox="0 0 512 512" fill="none" xmlns="http://www.w3.org/2000/svg">
  <defs>
    <linearGradient id="bg" x1="64" y1="64" x2="448" y2="448" gradientUnits="userSpaceOnUse">
      <stop stop-color="#0B1220"/>
      <stop offset="1" stop-color="#182844"/>
    </linearGradient>
    <linearGradient id="accent" x1="116" y1="116" x2="396" y2="396" gradientUnits="userSpaceOnUse">
      <stop stop-color="#58A6FF"/>
      <stop offset="1" stop-color="#2F81F7"/>
    </linearGradient>
    <linearGradient id="trail" x1="220" y1="260" x2="430" y2="260" gradientUnits="userSpaceOnUse">
      <stop stop-color="#58A6FF" stop-opacity="0.95"/>
      <stop offset="1" stop-color="#58A6FF" stop-opacity="0"/>
    </linearGradient>
  </defs>

  <rect x="24" y="24" width="464" height="464" rx="112" fill="url(#bg)"/>

  <path d="M256 98C169.96 98 100 167.96 100 254C100 340.04 169.96 410 256 410C323.61 410 381.15 366.95 402.57 306H328V254H412C412 249.99 411.85 246 411.56 242C405.54 162.09 338.8 98 256 98Z" fill="url(#accent)"/>

  <rect x="290" y="236" width="146" height="36" rx="18" fill="url(#trail)"/>
  <rect x="318" y="188" width="98" height="24" rx="12" fill="#58A6FF" fill-opacity="0.45"/>
  <rect x="332" y="300" width="82" height="20" rx="10" fill="#58A6FF" fill-opacity="0.36"/>

  <circle cx="402" cy="254" r="10" fill="#A5D6FF"/>

  <path d="M204 186C178.49 201.57 162 229.67 162 261.5C162 310.38 201.62 350 250.5 350C280.64 350 307.26 334.93 323.25 311.91" stroke="#DDEBFF" stroke-opacity="0.9" stroke-width="18" stroke-linecap="round"/>
</svg>
